<?xml version="1.0" standalone="no"?>
<!DOCTYPE svg PUBLIC "-//W3C//DTD SVG 20010904//EN"
 "http://www.w3.org/TR/2001/REC-SVG-20010904/DTD/svg10.dtd">
<svg version="1.0" xmlns="http://www.w3.org/2000/svg"
 width="448.000000pt" height="112.000000pt" viewBox="0 0 448.000000 112.000000"
 preserveAspectRatio="xMidYMid meet">

<g transform="translate(0.000000,112.000000) scale(0.100000,-0.100000)"
fill="#000000" stroke="none">
<path d="M0 563 l1 -558 48 100 c27 55 148 304 270 554 121 249 221 455 221
457 0 2 -121 4 -270 4 l-270 0 0 -557z"/>
<path d="M1778 1068 l-48 -30 0 -62 c0 -58 2 -64 25 -74 25 -12 27 -10 65 69
22 45 42 84 44 87 3 3 -8 -37 -25 -87 -39 -115 -33 -126 45 -82 l55 32 -5 52
c-3 29 -7 57 -9 63 -3 9 -93 67 -99 63 0 0 -22 -14 -48 -31z"/>
<path d="M4316 757 c-86 -189 -201 -433 -255 -543 -54 -109 -96 -202 -94 -206
2 -5 119 -8 259 -8 l254 0 0 550 c0 303 -2 550 -3 550 -2 0 -74 -154 -161
-343z"/>
<path d="M1221 865 l-73 -44 60 -30 61 -31 48 22 c26 12 74 24 106 27 l57 6
-85 48 c-47 26 -88 47 -93 46 -4 0 -40 -20 -81 -44z"/>
<path d="M1953 785 c0 -22 2 -30 4 -17 2 12 2 30 0 40 -3 9 -5 -1 -4 -23z"/>
<path d="M2113 785 c0 -22 2 -30 4 -17 2 12 2 30 0 40 -3 9 -5 -1 -4 -23z"/>
<path d="M2283 785 c0 -22 2 -30 4 -17 2 12 2 30 0 40 -3 9 -5 -1 -4 -23z"/>
<path d="M2333 785 c0 -22 2 -30 4 -17 2 12 2 30 0 40 -3 9 -5 -1 -4 -23z"/>
<path d="M3163 785 c0 -22 2 -30 4 -17 2 12 2 30 0 40 -3 9 -5 -1 -4 -23z"/>
<path d="M1890 785 c13 -14 26 -25 28 -25 3 0 -5 11 -18 25 -13 14 -26 25 -28
25 -3 0 5 -11 18 -25z"/>
<path d="M1013 743 l-93 -56 0 -196 0 -196 49 93 c44 81 49 96 40 124 -13 46
-10 108 6 143 l13 30 2 -40 c1 -22 7 -55 14 -74 l12 -34 52 66 c29 36 68 79
87 96 l36 31 -55 35 c-30 19 -59 35 -63 34 -4 -1 -50 -26 -100 -56z"/>
<path d="M2451 784 c0 -11 3 -14 6 -6 3 7 2 16 -1 19 -3 4 -6 -2 -5 -13z"/>
<path d="M2521 784 c0 -11 3 -14 6 -6 3 7 2 16 -1 19 -3 4 -6 -2 -5 -13z"/>
<path d="M3298 773 c5 -21 7 -23 10 -9 2 10 0 22 -6 28 -6 6 -7 0 -4 -19z"/>
<path d="M3350 798 c0 -2 9 -11 20 -21 11 -9 20 -13 20 -7 0 5 -9 14 -20 20
-11 6 -20 9 -20 8z"/>
<path d="M1445 766 c-22 -7 -55 -20 -73 -30 l-33 -17 48 -32 c26 -17 78 -61
116 -98 l67 -67 29 41 c40 59 84 137 80 141 -2 2 -34 19 -70 40 -70 38 -100
42 -164 22z"/>
<path d="M2130 776 c0 -2 8 -10 18 -17 15 -13 16 -12 3 4 -13 16 -21 21 -21
13z"/>
<path d="M2611 764 c0 -11 3 -14 6 -6 3 7 2 16 -1 19 -3 4 -6 -2 -5 -13z"/>
<path d="M1780 522 c0 -164 2 -181 23 -222 31 -63 87 -90 184 -90 119 0 175
33 201 120 5 19 13 111 16 203 l6 168 -31 -3 -31 -3 1 -150 c2 -235 -25 -295
-135 -295 -42 0 -59 5 -83 25 -44 37 -55 101 -49 279 l5 146 -53 0 -54 0 0
-178z"/>
<path d="M2270 455 l0 -246 51 3 52 3 -2 101 -2 100 70 11 c40 6 83 20 100 32
47 33 63 112 36 174 -6 15 0 17 74 17 l81 0 0 -220 0 -220 50 0 50 0 0 221 0
222 86 -7 85 -7 -3 28 -3 28 -362 3 -363 2 0 -245z m185 180 c20 -19 25 -34
25 -75 0 -62 -30 -100 -80 -100 l-30 0 0 100 0 100 30 0 c19 0 40 -9 55 -25z"/>
<path d="M3055 688 c-2 -7 -9 -53 -15 -103 -12 -101 -49 -331 -56 -357 -4 -14
1 -18 25 -18 35 0 36 5 46 160 4 52 10 111 14 130 8 34 10 31 86 -127 43 -90
83 -163 89 -163 6 0 47 74 90 165 43 91 81 164 82 162 3 -2 34 -303 34 -324 0
-1 25 -3 56 -3 55 0 56 0 50 28 -5 23 -30 221 -52 405 -6 53 -8 57 -33 57 -24
0 -33 -14 -105 -166 -44 -91 -83 -167 -88 -170 -5 -3 -46 71 -91 165 -71 148
-85 171 -105 171 -12 0 -24 -6 -27 -12z"/>
<path d="M1195 594 c-46 -47 -87 -94 -90 -105 -10 -32 88 -134 221 -231 12 -9
92 65 162 148 l42 52 -44 54 c-46 57 -175 168 -195 168 -6 0 -49 -39 -96 -86z"/>
<path d="M1649 549 l-46 -90 15 -51 c12 -43 12 -60 2 -107 l-13 -56 -12 55
c-7 30 -16 66 -22 78 -9 24 -9 23 -35 -15 -14 -21 -49 -64 -77 -95 -29 -32
-50 -61 -48 -65 3 -5 30 -21 60 -37 l54 -30 82 49 c46 26 85 53 87 59 2 6 3
98 2 203 l-3 192 -46 -90z"/>
<path d="M1027 388 c-35 -48 -101 -158 -96 -161 2 -2 35 -21 73 -42 61 -33 74
-37 118 -32 51 6 158 50 158 64 0 4 -28 26 -61 48 -33 22 -85 66 -114 98 l-54
57 -24 -32z"/>
<path d="M1307 151 c-51 -25 -135 -33 -192 -18 -16 4 22 -21 85 -57 l114 -64
46 26 c25 14 64 38 87 52 l42 25 -67 30 -67 30 -48 -24z"/>
</g>
</svg>
